<svg id="Layer_1" data-name="Layer 1" xmlns="http://www.w3.org/2000/svg" xmlns:xlink="http://www.w3.org/1999/xlink" viewBox="0 0 131.04 87.72"><defs><style>.cls-1{fill:#fff;}.cls-2{fill:url(#linear-gradient);}.cls-3{fill:url(#linear-gradient-2);}.cls-4{fill:url(#linear-gradient-3);}.cls-5{fill:url(#linear-gradient-4);}.cls-6{fill:url(#linear-gradient-5);}.cls-7{fill:url(#linear-gradient-6);}.cls-8{fill:url(#linear-gradient-7);}.cls-9{fill:url(#linear-gradient-8);}.cls-10{fill:url(#linear-gradient-9);}.cls-11{fill:url(#linear-gradient-10);}.cls-12{fill:url(#linear-gradient-11);}.cls-13{fill:url(#linear-gradient-12);}.cls-14{fill:url(#linear-gradient-13);}.cls-15{fill:url(#linear-gradient-14);}.cls-16{fill:url(#linear-gradient-15);}</style><linearGradient id="linear-gradient" x1="48.38" y1="84.76" x2="52.06" y2="84.76" gradientUnits="userSpaceOnUse"><stop offset="0" stop-color="#7f8e9e"/><stop offset="0.4" stop-color="#5a6a7c"/><stop offset="0.82" stop-color="#3f4e62"/></linearGradient><linearGradient id="linear-gradient-2" x1="54.5" y1="85.19" x2="55.38" y2="85.19" xlink:href="#linear-gradient"/><linearGradient id="linear-gradient-3" x1="58" y1="85.92" x2="63.26" y2="85.92" xlink:href="#linear-gradient"/><linearGradient id="linear-gradient-4" x1="65.91" y1="85.19" x2="66.79" y2="85.19" xlink:href="#linear-gradient"/><linearGradient id="linear-gradient-5" x1="69.12" y1="85.26" x2="71.37" y2="85.26" xlink:href="#linear-gradient"/><linearGradient id="linear-gradient-6" x1="73.4" y1="85.96" x2="76.89" y2="85.96" xlink:href="#linear-gradient"/><linearGradient id="linear-gradient-7" x1="78.95" y1="84.59" x2="82.66" y2="84.59" xlink:href="#linear-gradient"/><linearGradient id="linear-gradient-8" x1="0.11" y1="84.59" x2="44.57" y2="84.59" xlink:href="#linear-gradient"/><linearGradient id="linear-gradient-9" x1="86.46" y1="84.59" x2="130.93" y2="84.59" xlink:href="#linear-gradient"/><linearGradient id="linear-gradient-10" x1="59.21" y1="52.51" x2="62.09" y2="52.51" xlink:href="#linear-gradient"/><linearGradient id="linear-gradient-11" x1="63.12" y1="52.51" x2="66.01" y2="52.51" xlink:href="#linear-gradient"/><linearGradient id="linear-gradient-12" x1="59.21" y1="56.43" x2="62.09" y2="56.43" xlink:href="#linear-gradient"/><linearGradient id="linear-gradient-13" x1="63.12" y1="56.43" x2="66.01" y2="56.43" xlink:href="#linear-gradient"/><linearGradient id="linear-gradient-14" x1="74.51" y1="51.13" x2="130.06" y2="51.13" gradientUnits="userSpaceOnUse"><stop offset="0.18" stop-color="#3f4e62"/><stop offset="0.6" stop-color="#5a6a7c"/><stop offset="1" stop-color="#7f8e9e"/></linearGradient><linearGradient id="linear-gradient-15" x1="0.11" y1="49.31" x2="93.91" y2="49.31" xlink:href="#linear-gradient"/></defs><title>Amana Homes Ltd</title><path class="cls-1" d="M9.16,75.11H4L2.65,78.43H.42L6.67,63.71h.14l6.25,14.72h-2.6ZM8.4,73.17,6.63,68.7,4.81,73.17Z"/><path class="cls-1" d="M28,70.52a2.46,2.46,0,0,1,.75,1.79v6.12H26.59V73.15a2,2,0,0,0-.3-1,1,1,0,0,0-.83-.4,1.9,1.9,0,0,0-1.63.9,3.68,3.68,0,0,0-.64,2.11v3.69H21V73.15a2,2,0,0,0-.3-1,1.09,1.09,0,0,0-.87-.41,1.72,1.72,0,0,0-1.16.43,2.81,2.81,0,0,0-.79,1.12,3.87,3.87,0,0,0-.28,1.46v3.69H15.41V70.21h2l.17,1.44a3.33,3.33,0,0,1,1.26-1.34,3.59,3.59,0,0,1,1.83-.47,3,3,0,0,1,1.66.44,2.09,2.09,0,0,1,.89,1.25,3.62,3.62,0,0,1,1.28-1.24,3.16,3.16,0,0,1,1.61-.45A2.65,2.65,0,0,1,28,70.52Z"/><path class="cls-1" d="M40.73,70.21v8.22H38.55V77.25a4.6,4.6,0,0,1-1.2,1,3.52,3.52,0,0,1-1.77.44,4.45,4.45,0,0,1-2.12-.5A3.59,3.59,0,0,1,32,76.68a4.64,4.64,0,0,1-.55-2.35A4.77,4.77,0,0,1,32,72a4,4,0,0,1,3.57-2.13,3.37,3.37,0,0,1,3,1.48l.16-1.11Zm-3,6.19a2.39,2.39,0,0,0,.86-1.29V73.32a2.23,2.23,0,0,0-.9-1.22,2.65,2.65,0,0,0-1.55-.47,2.34,2.34,0,0,0-1.74.73,2.53,2.53,0,0,0-.72,1.86A2.58,2.58,0,0,0,34,75.56a2.65,2.65,0,0,0,.93,1,2.58,2.58,0,0,0,2.77-.11Z"/><path class="cls-1" d="M51.4,70.55a2.32,2.32,0,0,1,.79,1.78v6.1H50V73.11a1.56,1.56,0,0,0-.37-1,1.36,1.36,0,0,0-1-.39,2,2,0,0,0-1.66.86,3.56,3.56,0,0,0-.66,2.21v3.65H44.13V70.21h2l.16,1.46a3.12,3.12,0,0,1,1.29-1.33,3.86,3.86,0,0,1,2-.48A2.75,2.75,0,0,1,51.4,70.55Z"/><path class="cls-1" d="M64.18,70.21v8.22H62V77.25a4.6,4.6,0,0,1-1.2,1,3.52,3.52,0,0,1-1.77.44,4.45,4.45,0,0,1-2.12-.5,3.67,3.67,0,0,1-1.48-1.47,4.75,4.75,0,0,1-.54-2.35A4.87,4.87,0,0,1,55.45,72,4.08,4.08,0,0,1,57,70.4,4,4,0,0,1,59,69.84a3.37,3.37,0,0,1,3,1.48l.16-1.11Zm-3,6.19A2.45,2.45,0,0,0,62,75.11V73.32a2.28,2.28,0,0,0-.9-1.22,2.65,2.65,0,0,0-1.55-.47,2.36,2.36,0,0,0-1.75.73,2.77,2.77,0,0,0-.36,3.2,2.65,2.65,0,0,0,.93,1,2.58,2.58,0,0,0,2.77-.11Z"/><path class="cls-1" d="M81.91,64.77v5.76H75.18V59.23l-.11-.11H74.6L73,59.05v19.4h2.21V72.62h6.73v5.83H84.1V64.77Z"/><path class="cls-1" d="M95.61,72.2a4,4,0,0,0-1.55-1.52,4.8,4.8,0,0,0-2.3-.55,4.88,4.88,0,0,0-2.32.55,4.17,4.17,0,0,0-1.58,1.54,4.11,4.11,0,0,0-.58,2.16,4.25,4.25,0,0,0,.58,2.26,3.85,3.85,0,0,0,1.58,1.49,5.05,5.05,0,0,0,2.3.51,4.61,4.61,0,0,0,2.32-.56,3.93,3.93,0,0,0,1.55-1.53,4.65,4.65,0,0,0,0-4.35Zm-2.25,4a2.23,2.23,0,0,1-3.29,0,2.55,2.55,0,0,1-.66-1.79,2.61,2.61,0,0,1,.66-1.8,2.21,2.21,0,0,1,3.29,0,2.83,2.83,0,0,1,0,3.61Z"/><path class="cls-1" d="M110.92,70.79a2.57,2.57,0,0,0-1.85-.66,3.06,3.06,0,0,0-1.56.43,3.56,3.56,0,0,0-1.24,1.2,2,2,0,0,0-.86-1.2,2.81,2.81,0,0,0-1.6-.43,3.43,3.43,0,0,0-1.77.45,3.19,3.19,0,0,0-1.22,1.3l-.17-1.39h-1.9v8h2.11V74.86a3.56,3.56,0,0,1,.27-1.4,2.64,2.64,0,0,1,.76-1.09A1.66,1.66,0,0,1,103,72a1,1,0,0,1,.83.39,1.81,1.81,0,0,1,.29,1v5.11h2.13V74.86a3.58,3.58,0,0,1,.62-2,1.81,1.81,0,0,1,1.58-.87,1,1,0,0,1,.8.38,2,2,0,0,1,.29,1v5.11h2.08V72.52A2.37,2.37,0,0,0,110.92,70.79Z"/><path class="cls-1" d="M118.75,76.84a2.64,2.64,0,0,1-1.17-.26,2.22,2.22,0,0,1-.85-.76l6.13-2.06a4.7,4.7,0,0,0-1.42-2.68,3.9,3.9,0,0,0-2.69-1,4.6,4.6,0,0,0-2.26.57,4.34,4.34,0,0,0-1.63,1.55,4.06,4.06,0,0,0-.6,2.15,4.42,4.42,0,0,0,.53,2.2,3.77,3.77,0,0,0,1.54,1.5,5,5,0,0,0,2.38.54,4.51,4.51,0,0,0,1.41-.23,6.33,6.33,0,0,0,1.37-.63l-1-1.56A3.1,3.1,0,0,1,118.75,76.84Zm-2.43-2.55a2.59,2.59,0,0,1,.63-1.81,2.12,2.12,0,0,1,1.63-.69,1.89,1.89,0,0,1,1.22.37,2.37,2.37,0,0,1,.71,1l-4.17,1.49A2.58,2.58,0,0,1,116.32,74.29Z"/><path class="cls-1" d="M130.4,74.48a3.46,3.46,0,0,0-1.47-.83l-.41-.14a4.57,4.57,0,0,1-1.09-.46.68.68,0,0,1-.32-.65.7.7,0,0,1,.32-.58,1.36,1.36,0,0,1,.81-.22,2.32,2.32,0,0,1,.87.19,2.41,2.41,0,0,1,.82.5l.81-1.25a3.9,3.9,0,0,0-1.25-.67,5.65,5.65,0,0,0-1.57-.2,3.3,3.3,0,0,0-1.63.36,2.33,2.33,0,0,0-1,.92,2.47,2.47,0,0,0-.33,1.23,2.24,2.24,0,0,0,.5,1.45,3.22,3.22,0,0,0,1.54.92l.6.18a3.94,3.94,0,0,1,.83.37.72.72,0,0,1,.38.68.69.69,0,0,1-.37.64,1.72,1.72,0,0,1-.92.22,2.88,2.88,0,0,1-2-1l-.89,1.19a3.51,3.51,0,0,0,1.34.93,4.64,4.64,0,0,0,1.74.33,3.38,3.38,0,0,0,2.4-.78,2.59,2.59,0,0,0,.84-2A1.93,1.93,0,0,0,130.4,74.48Z"/><path class="cls-2" d="M49.15,81.9v5h2.91v.74H48.38V81.9Z"/><path class="cls-3" d="M54.63,82.87a.46.46,0,0,1,.62,0,.41.41,0,0,1,.13.29.42.42,0,0,1-.13.3.49.49,0,0,1-.62,0,.38.38,0,0,1-.13-.3A.37.37,0,0,1,54.63,82.87Zm.66,1.47v3.28h-.74V84.34Z"/><path class="cls-4" d="M63,84.48a1,1,0,0,1,.3.71v2.43h-.74V85.46c0-.39-.19-.59-.52-.61a.85.85,0,0,0-.51.17,1.06,1.06,0,0,0-.35.45,1.46,1.46,0,0,0-.14.59v1.56h-.74V85.46c0-.39-.2-.59-.54-.61a.82.82,0,0,0-.5.17,1.08,1.08,0,0,0-.36.45,1.53,1.53,0,0,0-.12.6v1.55H58V84.34h.66l.06.62a1.38,1.38,0,0,1,.52-.55,1.36,1.36,0,0,1,.75-.2,1.16,1.16,0,0,1,.66.18.86.86,0,0,1,.35.52,1.61,1.61,0,0,1,.52-.52,1.39,1.39,0,0,1,.69-.18A1,1,0,0,1,63,84.48Z"/><path class="cls-5" d="M66,82.87a.45.45,0,0,1,.31-.12.41.41,0,0,1,.3.12.38.38,0,0,1,.14.29.39.39,0,0,1-.14.3.4.4,0,0,1-.3.11.44.44,0,0,1-.31-.11.38.38,0,0,1-.13-.3A.37.37,0,0,1,66,82.87Zm.66,1.47v3.28H66V84.34Z"/><path class="cls-6" d="M70.47,82.9v1.45h.9v.59h-.9v2.68h-.74V84.94h-.61v-.59h.61V82.9Z"/><path class="cls-7" d="M76,86.78l.34.55a1.93,1.93,0,0,1-.56.27,1.83,1.83,0,0,1-.59.1,2,2,0,0,1-1-.22,1.59,1.59,0,0,1-.63-.63A1.86,1.86,0,0,1,73.4,86a1.66,1.66,0,0,1,.24-.88,1.76,1.76,0,0,1,.66-.64,1.93,1.93,0,0,1,.92-.23,1.59,1.59,0,0,1,1.08.37,2.09,2.09,0,0,1,.59,1l-2.6.92a1,1,0,0,0,.38.38,1.12,1.12,0,0,0,.55.14A1.33,1.33,0,0,0,76,86.78Zm-1.6-1.67a1.16,1.16,0,0,0-.29.81.87.87,0,0,0,0,.18l1.91-.7a1.07,1.07,0,0,0-.34-.44.87.87,0,0,0-.54-.17A1,1,0,0,0,74.42,85.11Z"/><path class="cls-8" d="M82.66,81.48v6.14h-.75v-.51a1.66,1.66,0,0,1-.58.43,1.73,1.73,0,0,1-.76.16,1.59,1.59,0,0,1-.83-.22,1.51,1.51,0,0,1-.58-.62,2,2,0,0,1-.21-.92,1.83,1.83,0,0,1,.22-.93,1.53,1.53,0,0,1,.61-.6,1.93,1.93,0,0,1,.88-.2,1.79,1.79,0,0,1,.72.15,1.38,1.38,0,0,1,.54.43V81.48Zm-1.13,5.36a1.08,1.08,0,0,0,.38-.62V85.6a1.06,1.06,0,0,0-.4-.58,1.18,1.18,0,0,0-.71-.23,1.06,1.06,0,0,0-.55.15,1.08,1.08,0,0,0-.41.41,1.11,1.11,0,0,0-.15.58,1.17,1.17,0,0,0,.15.58,1.15,1.15,0,0,0,.41.41,1.06,1.06,0,0,0,.55.15A1.18,1.18,0,0,0,81.53,86.84Z"/><polygon class="cls-9" points="44.57 84.87 0.11 84.59 44.57 84.32 44.57 84.87"/><polygon class="cls-10" points="86.46 84.32 130.93 84.59 86.46 84.87 86.46 84.32"/><rect class="cls-11" x="59.21" y="51.07" width="2.88" height="2.88"/><rect class="cls-12" x="63.12" y="51.07" width="2.88" height="2.88"/><rect class="cls-13" x="59.21" y="54.99" width="2.88" height="2.88"/><rect class="cls-14" x="63.12" y="54.99" width="2.88" height="2.88"/><polygon class="cls-1" points="76.96 38.24 77.56 38.7 76.96 39.31 76.96 38.24"/><polygon class="cls-15" points="130.06 44.35 126.72 49.37 125.91 47.88 117.74 51.95 98.52 61.19 77.41 44.64 76.48 45.53 74.51 43.84 75.96 42.45 77.41 41.06 99.04 58.11 116.54 49.7 124.69 45.64 123.85 44.09 130.06 44.35"/><polygon class="cls-16" points="62.61 37.43 42.78 57.25 0.11 61.19 44.37 61.19 62.61 41.88 88.67 61.19 93.91 61.19 62.61 37.43"/><polygon class="cls-1" points="42.96 41.37 42.96 53.88 41.84 55.01 41.84 41.94 42.96 41.37"/><polygon class="cls-1" points="45.22 40.24 45.22 51.63 44.09 52.75 44.09 40.8 45.22 40.24"/><polygon class="cls-1" points="47.48 39.1 47.48 49.37 46.35 50.49 46.35 39.67 47.48 39.1"/><polygon class="cls-1" points="49.73 37.96 49.73 47.11 48.61 48.24 48.61 38.53 49.73 37.96"/><polygon class="cls-1" points="55.96 40.88 50.86 45.98 50.86 38.31 55.96 40.88"/><polygon class="cls-1" points="56.88 6.75 56.88 38.82 54.66 37.7 54.66 7.88 56.88 6.75"/><polygon class="cls-1" points="61.34 4.51 61.34 35.5 59.11 37.73 59.11 5.63 61.34 4.51"/><polygon class="cls-1" points="65.81 2.27 65.81 36.91 63.58 35.22 63.58 3.38 65.81 2.27"/><polygon class="cls-1" points="70.27 0.02 70.27 40.31 68.04 38.62 68.04 1.14 70.27 0.02"/><polyline class="cls-1" points="74.73 40.09 72.56 42.04 72.5 42.09 72.5 0.7 90.4 10.93 90.4 20.72 74.73 28.62 74.71 28.63"/><polygon class="cls-1" points="106.81 31.12 106.81 51.52 104.5 52.61 104.5 29.98 106.81 31.12"/><polygon class="cls-1" points="102.75 29.12 102.75 53.13 100.44 54.21 100.44 27.99 102.75 29.12"/><polygon class="cls-1" points="98.69 27.13 98.69 54.37 96.38 52.68 96.38 25.99 98.69 27.13"/><polygon class="cls-1" points="94.63 25.14 94.63 51.7 92.33 49.92 92.33 24 94.63 25.14"/><polygon class="cls-1" points="76.96 30.02 76.96 39.31 77.56 38.7 77.79 38.48 85.27 44.62 90.73 48.82 90.6 23.16 76.96 30.02"/></svg>