<svg id="Layer_1" data-name="Layer 1" xmlns="http://www.w3.org/2000/svg" viewBox="0 0 150.73 150.73"><defs><style>.cls-1{fill:#fff;}.cls-2{fill:#9b6fc1;}</style></defs><title>Amana Homes Ltd logo</title><path class="cls-1" d="M19,106.61H13.86l-1.36,3.33H10.26l6.26-14.73h.13l6.26,14.73h-2.6Zm-.76-1.94-1.77-4.47-1.83,4.47Z"/><path class="cls-1" d="M37.84,102a2.52,2.52,0,0,1,.75,1.79v6.12H36.43v-5.29a1.9,1.9,0,0,0-.29-1,1.06,1.06,0,0,0-.84-.4,1.9,1.9,0,0,0-1.63.91,3.72,3.72,0,0,0-.64,2.1v3.7H30.84v-5.29a2,2,0,0,0-.3-1,1.13,1.13,0,0,0-.87-.41,1.75,1.75,0,0,0-1.16.43,2.84,2.84,0,0,0-.79,1.13,3.78,3.78,0,0,0-.28,1.45v3.7H25.26v-8.22h2l.18,1.44a3.27,3.27,0,0,1,1.26-1.34,3.46,3.46,0,0,1,1.83-.47,2.92,2.92,0,0,1,1.66.44A2,2,0,0,1,33,103a3.7,3.7,0,0,1,1.28-1.24,3.2,3.2,0,0,1,1.62-.45A2.65,2.65,0,0,1,37.84,102Z"/><path class="cls-1" d="M50.57,101.72v8.22H48.4v-1.19a4.5,4.5,0,0,1-1.21,1,3.46,3.46,0,0,1-1.76.44,4.45,4.45,0,0,1-2.12-.5,3.65,3.65,0,0,1-1.48-1.46,4.77,4.77,0,0,1-.54-2.35,4.84,4.84,0,0,1,.56-2.36,4.1,4.1,0,0,1,1.51-1.58,4,4,0,0,1,2.07-.55,3.35,3.35,0,0,1,3,1.48l.15-1.11Zm-3,6.19a2.47,2.47,0,0,0,.87-1.3v-1.78a2.31,2.31,0,0,0-.9-1.23,2.67,2.67,0,0,0-1.55-.46,2.38,2.38,0,0,0-1.75.72,2.55,2.55,0,0,0-.72,1.86A2.62,2.62,0,0,0,44.77,108a2.33,2.33,0,0,0,1.26.35A2.45,2.45,0,0,0,47.53,107.91Z"/><path class="cls-1" d="M61.25,102.06a2.37,2.37,0,0,1,.79,1.78v6.1H59.86v-5.33a1.59,1.59,0,0,0-.38-1,1.41,1.41,0,0,0-1-.39,2,2,0,0,0-1.66.87,3.57,3.57,0,0,0-.65,2.2v3.66H54v-8.22h2l.15,1.45a3.24,3.24,0,0,1,1.29-1.33,4,4,0,0,1,2-.47A2.75,2.75,0,0,1,61.25,102.06Z"/><path class="cls-1" d="M74,101.72v8.22H71.85v-1.19a4.5,4.5,0,0,1-1.21,1,3.47,3.47,0,0,1-1.77.44,4.41,4.41,0,0,1-2.11-.5,3.65,3.65,0,0,1-1.48-1.46,5.32,5.32,0,0,1,0-4.71,4.1,4.1,0,0,1,1.51-1.58,4,4,0,0,1,2.06-.55,3.36,3.36,0,0,1,3,1.48l.15-1.11Zm-3,6.19a2.47,2.47,0,0,0,.87-1.3v-1.78a2.28,2.28,0,0,0-.91-1.23,2.62,2.62,0,0,0-1.54-.46,2.38,2.38,0,0,0-1.75.72,2.55,2.55,0,0,0-.72,1.86,2.65,2.65,0,0,0,.35,1.34,2.73,2.73,0,0,0,.93,1,2.36,2.36,0,0,0,1.27.35A2.47,2.47,0,0,0,71,107.91Z"/><path class="cls-1" d="M91.75,96.27V102H85V90.74l-.11-.11h-.47l-1.62-.07V110H85v-5.82h6.73V110H94V96.27Z"/><path class="cls-1" d="M105.45,103.71a3.82,3.82,0,0,0-1.54-1.52,4.7,4.7,0,0,0-2.31-.56,4.76,4.76,0,0,0-2.31.56,4.11,4.11,0,0,0-2.16,3.69,4.4,4.4,0,0,0,.57,2.27,3.91,3.91,0,0,0,1.59,1.48,4.93,4.93,0,0,0,2.3.52,4.74,4.74,0,0,0,2.32-.56,3.87,3.87,0,0,0,1.54-1.54,4.56,4.56,0,0,0,0-4.34Zm-2.24,4a2.25,2.25,0,0,1-3.3,0,2.77,2.77,0,0,1,0-3.59,2.21,2.21,0,0,1,3.3,0,2.63,2.63,0,0,1,.65,1.81A2.57,2.57,0,0,1,103.21,107.7Z"/><path class="cls-1" d="M120.77,102.29a2.62,2.62,0,0,0-1.86-.66,3.07,3.07,0,0,0-1.55.44,3.5,3.5,0,0,0-1.25,1.2,2,2,0,0,0-.85-1.21,2.9,2.9,0,0,0-1.61-.43,3.33,3.33,0,0,0-1.76.46,3.26,3.26,0,0,0-1.23,1.29l-.17-1.39h-1.9v8h2.11v-3.57A3.76,3.76,0,0,1,111,105a2.81,2.81,0,0,1,.76-1.09,1.68,1.68,0,0,1,1.13-.41,1.06,1.06,0,0,1,.84.39,1.93,1.93,0,0,1,.29,1v5.11h2.12v-3.57a3.69,3.69,0,0,1,.62-2,1.85,1.85,0,0,1,1.59-.87,1,1,0,0,1,.8.38,1.88,1.88,0,0,1,.28,1v5.11h2.09V104A2.43,2.43,0,0,0,120.77,102.29Z"/><path class="cls-1" d="M128.6,108.34a2.49,2.49,0,0,1-1.17-.26,2.2,2.2,0,0,1-.85-.75l6.13-2.06a4.8,4.8,0,0,0-1.43-2.69,3.92,3.92,0,0,0-2.68-1,4.61,4.61,0,0,0-2.26.58,4.27,4.27,0,0,0-1.63,1.55,3.92,3.92,0,0,0-.61,2.14,4.4,4.4,0,0,0,.54,2.2,3.71,3.71,0,0,0,1.54,1.5,4.84,4.84,0,0,0,2.38.55,4.71,4.71,0,0,0,1.4-.23,6.19,6.19,0,0,0,1.38-.64l-1-1.55A3.16,3.16,0,0,1,128.6,108.34Zm-2.43-2.55a2.57,2.57,0,0,1,.63-1.8,2.07,2.07,0,0,1,1.62-.7,1.87,1.87,0,0,1,1.22.38,2.18,2.18,0,0,1,.72,1l-4.17,1.48A1.42,1.42,0,0,1,126.17,105.79Z"/><path class="cls-1" d="M140.25,106a3.54,3.54,0,0,0-1.47-.84,3.43,3.43,0,0,0-.41-.13,5.16,5.16,0,0,1-1.1-.46.67.67,0,0,1-.31-.65.68.68,0,0,1,.31-.58,1.35,1.35,0,0,1,.82-.23,2.32,2.32,0,0,1,.87.19,2.38,2.38,0,0,1,.81.51l.81-1.26a3.86,3.86,0,0,0-1.25-.66,5.17,5.17,0,0,0-1.56-.21,3.39,3.39,0,0,0-1.63.36,2.51,2.51,0,0,0-1,.93,2.41,2.41,0,0,0-.33,1.23,2.19,2.19,0,0,0,.51,1.44,3.16,3.16,0,0,0,1.54.93l.6.18a3.65,3.65,0,0,1,.83.36.75.75,0,0,1,.37.68.71.71,0,0,1-.36.65,1.73,1.73,0,0,1-.93.22,2.94,2.94,0,0,1-2-1l-.88,1.18a3.43,3.43,0,0,0,1.34.93,4.64,4.64,0,0,0,1.74.33,3.36,3.36,0,0,0,2.39-.78,2.55,2.55,0,0,0,.84-2A1.89,1.89,0,0,0,140.25,106Z"/><path class="cls-2" d="M59,113.4v5h2.91v.75H58.23V113.4Z"/><path class="cls-2" d="M64.48,114.37a.45.45,0,0,1,.31-.12.44.44,0,0,1,.3.12.38.38,0,0,1,.13.3.37.37,0,0,1-.13.29.44.44,0,0,1-.3.12.45.45,0,0,1-.31-.12.38.38,0,0,1-.14-.29A.39.39,0,0,1,64.48,114.37Zm.66,1.48v3.28H64.4v-3.28Z"/><path class="cls-2" d="M72.81,116a1,1,0,0,1,.3.72v2.43h-.74V117c0-.38-.19-.58-.52-.61a.85.85,0,0,0-.51.17A1.22,1.22,0,0,0,71,117a1.54,1.54,0,0,0-.13.6v1.56H70.1V117a.55.55,0,0,0-.54-.61.84.84,0,0,0-.5.17,1.15,1.15,0,0,0-.35.46,1.31,1.31,0,0,0-.13.59v1.56h-.73v-3.28h.66l.06.62a1.34,1.34,0,0,1,.52-.56,1.39,1.39,0,0,1,.74-.2,1.18,1.18,0,0,1,.67.19.81.81,0,0,1,.35.51,1.49,1.49,0,0,1,.52-.51,1.37,1.37,0,0,1,.68-.19A1.05,1.05,0,0,1,72.81,116Z"/><path class="cls-2" d="M75.89,114.37a.45.45,0,0,1,.31-.12.44.44,0,0,1,.3.12.38.38,0,0,1,.13.3.37.37,0,0,1-.13.29.44.44,0,0,1-.3.12.45.45,0,0,1-.31-.12.38.38,0,0,1-.14-.29A.39.39,0,0,1,75.89,114.37Zm.65,1.48v3.28h-.73v-3.28Z"/><path class="cls-2" d="M80.32,114.41v1.45h.89v.58h-.89v2.69h-.75v-2.69H79v-.58h.6v-1.45Z"/><path class="cls-2" d="M85.87,118.29l.34.54a2.16,2.16,0,0,1-.57.28,2.09,2.09,0,0,1-.59.1,1.94,1.94,0,0,1-1-.23,1.63,1.63,0,0,1-.63-.62,1.77,1.77,0,0,1-.22-.9,1.69,1.69,0,0,1,.24-.88,1.67,1.67,0,0,1,.66-.63,1.83,1.83,0,0,1,.92-.24,1.56,1.56,0,0,1,1.07.38,1.88,1.88,0,0,1,.59,1l-2.6.91a1.09,1.09,0,0,0,.39.38,1,1,0,0,0,.55.14A1.34,1.34,0,0,0,85.87,118.29Zm-1.6-1.67a1.11,1.11,0,0,0-.29.8v.19l1.91-.71a1.1,1.1,0,0,0-.33-.43.84.84,0,0,0-.55-.17A1,1,0,0,0,84.27,116.62Z"/><path class="cls-2" d="M92.5,113v6.14h-.74v-.52a1.72,1.72,0,0,1-.59.44,1.87,1.87,0,0,1-.75.16,1.63,1.63,0,0,1-.83-.22,1.56,1.56,0,0,1-.59-.63,1.92,1.92,0,0,1-.21-.92,1.82,1.82,0,0,1,.23-.92,1.47,1.47,0,0,1,.61-.6,1.79,1.79,0,0,1,.88-.21,1.63,1.63,0,0,1,.71.16,1.27,1.27,0,0,1,.54.42V113Zm-1.13,5.35a1,1,0,0,0,.39-.61v-.62a1.1,1.1,0,0,0-.41-.59,1.14,1.14,0,0,0-.7-.22,1.09,1.09,0,0,0-.56.15,1,1,0,0,0-.4.4,1.2,1.2,0,0,0,0,1.16,1.12,1.12,0,0,0,.4.41,1.09,1.09,0,0,0,.56.15A1.11,1.11,0,0,0,91.37,118.34Z"/><polygon class="cls-2" points="54.42 116.37 9.96 116.1 54.42 115.82 54.42 116.37"/><polygon class="cls-2" points="96.31 115.82 140.77 116.1 96.31 116.37 96.31 115.82"/><rect class="cls-2" x="69.05" y="82.57" width="2.88" height="2.88"/><rect class="cls-2" x="72.97" y="82.57" width="2.88" height="2.88"/><rect class="cls-2" x="69.05" y="86.49" width="2.88" height="2.88"/><rect class="cls-2" x="72.97" y="86.49" width="2.88" height="2.88"/><polygon class="cls-1" points="86.81 69.75 87.41 70.21 86.81 70.81 86.81 69.75"/><polygon class="cls-2" points="139.91 75.85 136.57 80.88 135.76 79.39 127.59 83.46 108.37 92.7 87.26 76.14 86.33 77.03 84.36 75.34 85.8 73.95 87.26 72.56 108.89 89.61 126.39 81.2 134.54 77.14 133.69 75.59 139.91 75.85"/><polygon class="cls-2" points="72.45 68.93 52.63 88.75 9.96 92.7 54.22 92.7 72.45 73.38 98.52 92.7 103.75 92.7 72.45 68.93"/><polygon class="cls-1" points="52.81 72.88 52.81 85.39 51.68 86.51 51.68 73.45 52.81 72.88"/><polygon class="cls-1" points="55.06 71.74 55.06 83.13 53.94 84.26 53.94 72.31 55.06 71.74"/><polygon class="cls-1" points="57.32 70.6 57.32 80.87 56.2 82 56.2 71.17 57.32 70.6"/><polygon class="cls-1" points="59.58 69.47 59.58 78.61 58.45 79.74 58.45 70.03 59.58 69.47"/><polygon class="cls-1" points="65.81 72.39 60.71 77.49 60.71 69.82 65.81 72.39"/><polygon class="cls-1" points="66.73 38.26 66.73 70.33 64.5 69.21 64.5 39.38 66.73 38.26"/><polygon class="cls-1" points="71.19 36.01 71.19 67.01 68.96 69.23 68.96 37.14 71.19 36.01"/><polygon class="cls-1" points="75.66 33.77 75.66 68.42 73.43 66.72 73.43 34.89 75.66 33.77"/><polygon class="cls-1" points="80.12 31.52 80.12 71.81 77.89 70.12 77.89 32.64 80.12 31.52"/><polyline class="cls-1" points="84.58 71.59 82.41 73.55 82.35 73.59 82.35 32.21 100.25 42.44 100.25 52.23 84.58 60.12 84.56 60.13"/><polygon class="cls-1" points="116.65 62.62 116.65 83.03 114.34 84.11 114.34 61.49 116.65 62.62"/><polygon class="cls-1" points="112.59 60.63 112.59 84.63 110.28 85.72 110.28 59.49 112.59 60.63"/><polygon class="cls-1" points="108.53 58.63 108.53 85.88 106.22 84.18 106.22 57.5 108.53 58.63"/><polygon class="cls-1" points="104.48 56.64 104.48 83.2 102.17 81.42 102.17 55.5 104.48 56.64"/><polygon class="cls-1" points="86.81 61.53 86.81 70.81 87.41 70.21 87.63 69.98 95.11 76.13 100.57 80.33 100.45 54.66 86.81 61.53"/></svg>